<?xml version="1.0" encoding="UTF-8" standalone="no"?>
<!DOCTYPE svg PUBLIC "-//W3C//DTD SVG 1.1//EN" "http://www.w3.org/Graphics/SVG/1.1/DTD/svg11.dtd">
<svg width="100%" height="100%" viewBox="0 0 800 800" version="1.1" xmlns="http://www.w3.org/2000/svg" xmlns:xlink="http://www.w3.org/1999/xlink" xml:space="preserve" xmlns:serif="http://www.serif.com/" style="fill-rule:evenodd;clip-rule:evenodd;stroke-linecap:round;stroke-linejoin:round;stroke-miterlimit:1.5;">
    <g transform="matrix(1.08827,0,0,1.09607,-28.3816,-43.9688)">
        <path d="M761.194,68.008L761.194,742.1C761.194,757.494 748.606,769.993 733.101,769.993L54.173,769.993C38.668,769.993 26.08,757.494 26.08,742.1L26.08,68.008C26.08,52.613 38.668,40.115 54.173,40.115L733.101,40.115C748.606,40.115 761.194,52.613 761.194,68.008Z" style="fill:rgb(28,39,76);fill-opacity:0.5;stroke:black;stroke-width:0.01px;"/>
    </g>
    <g transform="matrix(33.3333,0,0,33.3333,0,0)">
        <path d="M13.488,6.446C13.888,6.553 14.126,6.964 14.018,7.364L11.43,17.024C11.323,17.424 10.912,17.661 10.512,17.554C10.112,17.447 9.874,17.036 9.981,16.636L12.57,6.976C12.677,6.576 13.088,6.339 13.488,6.446Z" style="fill:rgb(28,39,76);fill-rule:nonzero;"/>
    </g>
    <g transform="matrix(33.3333,0,0,33.3333,0,0)">
        <path d="M14.97,8.47C15.263,8.177 15.737,8.177 16.03,8.47L16.239,8.678C16.874,9.313 17.404,9.843 17.768,10.32C18.152,10.824 18.422,11.356 18.422,12C18.422,12.644 18.152,13.176 17.768,13.68C17.404,14.157 16.874,14.687 16.239,15.322L16.03,15.53C15.737,15.823 15.263,15.823 14.97,15.53C14.677,15.237 14.677,14.763 14.97,14.47L15.141,14.298C15.823,13.616 16.28,13.157 16.575,12.77C16.858,12.4 16.922,12.184 16.922,12C16.922,11.816 16.858,11.6 16.575,11.23C16.28,10.843 15.823,10.384 15.141,9.702L14.97,9.53C14.677,9.237 14.677,8.763 14.97,8.47Z" style="fill:rgb(28,39,76);fill-rule:nonzero;"/>
    </g>
    <g transform="matrix(33.3333,0,0,33.3333,0,0)">
        <path d="M7.97,8.47C8.263,8.177 8.738,8.177 9.031,8.47C9.323,8.763 9.323,9.237 9.031,9.53L8.859,9.702C8.177,10.384 7.721,10.843 7.425,11.23C7.142,11.6 7.079,11.816 7.079,12C7.079,12.184 7.142,12.4 7.425,12.77C7.721,13.157 8.177,13.616 8.859,14.298L9.031,14.47C9.323,14.763 9.323,15.237 9.031,15.53C8.738,15.823 8.263,15.823 7.97,15.53L7.762,15.322C7.126,14.687 6.596,14.157 6.232,13.68C5.848,13.176 5.579,12.644 5.579,12C5.579,11.356 5.848,10.824 6.232,10.32C6.596,9.843 7.126,9.313 7.762,8.678L7.97,8.47Z" style="fill:rgb(28,39,76);fill-rule:nonzero;"/>
    </g>
</svg>
