<svg width="24" height="23" viewBox="0 0 24 23" fill="none" xmlns="http://www.w3.org/2000/svg">
<path d="M13.5 14.0488V19.0488H10.5V14.0488H13.5ZM12 3C13.1097 3 14.0412 3.79858 15.9043 5.39551L16.9043 6.25293C17.9351 7.13648 18.4511 7.57814 18.7256 8.1748C19 8.77154 19 9.45084 19 10.8086V15.0488C19 16.9344 18.9998 17.8771 18.4141 18.4629C17.8825 18.9944 17.0571 19.0404 15.5 19.0449V14.0488C15.5 12.9443 14.6046 12.0488 13.5 12.0488H10.5C9.39543 12.0488 8.5 12.9443 8.5 14.0488V19.0449C6.94288 19.0404 6.11748 18.9944 5.58594 18.4629C5.00016 17.8771 5 16.9344 5 15.0488V10.8086C5 9.45084 4.99995 8.77154 5.27441 8.1748C5.54889 7.57814 6.0649 7.13648 7.0957 6.25293L8.0957 5.39551C9.95879 3.79858 10.8903 3 12 3Z" fill="white"/>
</svg>
